<svg xmlns="http://www.w3.org/2000/svg" viewBox="0 0 24 24" fill="currentColor" class="w-6 h-6">
    <path fill-rule="evenodd"
        d="M5.25 4.5a.75.75 0 000 1.5h13.5a.75.75 0 000-1.5H15.75v-.75a1.5 1.5 0 00-1.5-1.5h-4.5a1.5 1.5 0 00-1.5 1.5v.75H5.25zm3.75-.75a.75.75 0 01.75-.75h4.5a.75.75 0 01.75.75v.75H9V3.75zM7.5 7.5A.75.75 0 016.75 6.75h-.25a.75.75 0 000 1.5H7.5v10.5a3 3 0 003 3h6a3 3 0 003-3V8.25h.25a.75.75 0 100-1.5h-.25A.75.75 0 0116.5 7.5v10.5a1.5 1.5 0 01-1.5 1.5h-6a1.5 1.5 0 01-1.5-1.5V7.5z"
        clip-rule="evenodd" />
</svg>
  